<?xml version="1.0" encoding="UTF-8"?>
<svg id="Layer_2" xmlns="http://www.w3.org/2000/svg" viewBox="0 0 454.15 304.46">
  <defs>
    <style>
      .cls-1 {
        fill: #fff;
        stroke: #fff;
        stroke-miterlimit: 10;
      }
    </style>
  </defs>
  <g id="Layer_2-2" data-name="Layer_2">
    <g>
      <path class="cls-1" d="M102.19,278.96c24.33-.52,21.05,7.14,21.05,7.14,0,0-9.29.51-15.7,0s-14.3,5.62-10.21,5.62,12.82-1.67,17.87.13c7.53,2.68,4.82,3.09,4.82,3.09,0,0-20.14-2.71-22.43,3.93-.78,2.25-.51,4.98-.51,4.98,0,0,20.04-4.6,26.74-2.15,1.16.42,11.94-1.77,15.77-2.57,4.5-.95,14.34-5.66,15.83-3.28l6.89.77h5.87s-15.83-12.17-22.98-6.55l8.82-19.65-14.71-3.63-7.91,11.64s-7.15-4.7-13.28-4.7-15.83,2.76-15.83,4.7c0,.17-.04.35-.11.54"/>
      <path class="cls-1" d="M453.47,280.76c-9.63-12.07-103.85-58.97-103.85-58.97,0,0,6.21-4.29,5.77-6.41-5.26-25.59-190.69-176.41-194.53-186.98-3.85-10.58-49.48-32.26-71.49-27.12-42.55,9.93-47.49,33.93-55.77,35.26C17.66,39.09.9,55.76.9,55.76l32.05,12.18s2.88,15.13,1.28,16.03c-9.17,5.11-17.31,28.85-17.31,28.85-8.97-1.92,3.21,53.85,11.54,64.1,8.33,10.26,56.14,58.51,95.51,82.05,16.23,9.7,31.59,14.45,44.85,17.01,14.51,2.8,26.52,2.97,34.43,4.14,5.26.78,65.59-27.56,63.03-32.69,0,0,80.13,2.56,72.44-1.28-1.32-.66-2.18-1.09-2.67-1.33,1.47.74,5.91,2.96,10.36,5.18,7.69,3.85,69.23,42.31,73.08,41.67,3.85-.64,16.67-7.69,16.67-7.69,0,0,19.59-.34,17.31-3.21ZM80.88,55.33c-8.46,0-15.32-6.4-15.32-14.3s6.86-14.3,15.32-14.3,15.32,6.4,15.32,14.3-6.86,14.3-15.32,14.3ZM335.58,244.58l.26.13c-.13-.06-.21-.11-.26-.13Z"/>
    </g>
  </g>
</svg>