<?xml version="1.0" encoding="UTF-8"?>
<svg id="Layer_2" xmlns="http://www.w3.org/2000/svg" viewBox="0 0 454.15 297.2">
  <defs>
    <style>
      .cls-1 {
        fill: #1da1f2;
        stroke: #1da1f2;
        stroke-miterlimit: 10;
      }
    </style>
  </defs>
  <g id="Layer_2-2" data-name="Layer_2">
    <g>
      <path class="cls-1" d="M93.13,263.39c4.05-.81,19.45,6.25,19.59,6.54l13.39,10.47-3.71-6.47s-9.94-12.24-15.09-11.78l11.53-12.18-13.24-7.36-10.68,9.17s-2.23-4.52-8.27-6.65-11.13-1.49-11.13-1.49c-.4.28-8.56,3.19-8.68,3.35l13.26.55c12.85,5.61,10.49,7.23,9.84,6.93,0,0-7.28-1.98-13.33-4.15s-20.85,2.31-16.77,2.33c12.16.04,20.4,2.68,24.81,5.74l-11.56-1.9s-8.31.52-12.63,2.66l13.72,1.28c.09,0,.17,0,.25,0l18.71,2.98Z"/>
      <g>
        <path class="cls-1" d="M135.76,287.9c-.9-.05,7.53-.08,12.26.43l20.65,7.61-5.28-5.28s-12.8-9.2-17.65-7.42l7.94-14.77-14.71-3.63-7.91,11.64s-3.34-3.77-9.73-4.25-11.13,1.48-11.13,1.48c-.32.38-7.43,5.32-7.5,5.51l12.94-2.94c13.87,2.04,12.01,4.23,11.31,4.11,0,0-7.54,0-13.96-.51s-19.52,7.69-15.57,6.64c11.74-3.14,20.39-2.76,25.45-.96l-11.66,1.19s-7.89,2.68-11.49,5.87l13.57-2.36c.08-.01.17-.04.24-.07l22.21-2.29Z"/>
        <path class="cls-1" d="M453.47,280.76c-9.63-12.07-103.85-58.97-103.85-58.97,0,0,6.21-4.29,5.77-6.41-5.26-25.59-190.69-176.41-194.53-186.98-3.85-10.58-49.48-32.26-71.49-27.12-42.55,9.93-47.49,33.93-55.77,35.26C17.66,39.09.9,55.76.9,55.76l32.05,12.18s2.88,15.13,1.28,16.03c-9.17,5.11-17.31,28.85-17.31,28.85.96.11,3.21,53.85,11.54,64.1,8.33,10.26,56.14,58.51,95.51,82.05,16.23,9.7,31.59,14.45,44.85,17.01,14.51,2.8,26.52,2.97,34.43,4.14,5.26.78,65.59-27.56,63.03-32.69,0,0,80.13,2.56,72.44-1.28-1.32-.66-2.18-1.09-2.67-1.33,1.47.74,5.91,2.96,10.36,5.18,7.69,3.85,69.23,42.31,73.08,41.67,3.85-.64,16.67-7.69,16.67-7.69,0,0,19.59-.34,17.31-3.21ZM84.61,55.33c-6.4,0-11.59-4.97-11.59-11.1s5.19-11.1,11.59-11.1,11.59,4.97,11.59,11.1-5.19,11.1-11.59,11.1ZM335.58,244.58l.26.13c-.13-.06-.21-.11-.26-.13Z"/>
      </g>
    </g>
  </g>
</svg>